<svg id="Layer_1" data-name="Layer 1" xmlns="http://www.w3.org/2000/svg" viewBox="0 0 69.31 17.19"><defs><style>.cls-1{fill:#1f3bb3;}</style></defs><path class="cls-1" d="M340.68,17.18h2.85l1.13-3.59h6.53l1.14,3.59h2.85L350,.62H345.9ZM345.47,11,347.9,3.3,350.36,11Zm16.77,6.52a5.47,5.47,0,0,0,2-.34,4.75,4.75,0,0,0,1.55-.93v.92h2.45V.62h-2.79V5.37a4.6,4.6,0,0,0-1.4-.7,5.37,5.37,0,0,0-1.7-.25,5.45,5.45,0,0,0-3.06.85,5.7,5.7,0,0,0-2,2.33,7.76,7.76,0,0,0-.71,3.37,7.73,7.73,0,0,0,.7,3.35,5.68,5.68,0,0,0,2,2.34A5.18,5.18,0,0,0,362.24,17.53Zm.42-2.49a2.84,2.84,0,0,1-1.78-.54,3.29,3.29,0,0,1-1-1.47A5.82,5.82,0,0,1,359.5,11a5.84,5.84,0,0,1,.35-2.05,3.17,3.17,0,0,1,1.07-1.47,2.92,2.92,0,0,1,1.84-.55A2.54,2.54,0,0,1,365.06,8a5.38,5.38,0,0,1,.72,2.94,5.44,5.44,0,0,1-.72,2.95A2.63,2.63,0,0,1,362.66,15Zm8.77,2.14h2.8V9.53a2.76,2.76,0,0,1,.63-1.88,2.38,2.38,0,0,1,3.43,0,3,3,0,0,1,.63,2v7.51h2.76V9.53a2.63,2.63,0,0,1,.67-1.92A2.25,2.25,0,0,1,384,6.92a2.18,2.18,0,0,1,1.71.73,2.85,2.85,0,0,1,.64,2v7.54h2.77V8.94A4.73,4.73,0,0,0,388,5.68a4,4,0,0,0-3.15-1.23,4.68,4.68,0,0,0-2.21.53,4.1,4.1,0,0,0-1.58,1.45A3.59,3.59,0,0,0,379.7,5a4.3,4.3,0,0,0-2.22-.54,4.74,4.74,0,0,0-2.06.45,4.17,4.17,0,0,0-1.54,1.21V4.76h-2.45Zm20.94-14.3h2.77V.33h-2.77Zm0,14.3h2.77V4.76h-2.77Zm6.19,0h2.81V10.8a5,5,0,0,1,.43-2.32,2.39,2.39,0,0,1,1.1-1.14A3.1,3.1,0,0,1,404.28,7a2.62,2.62,0,0,1,1.58.43,2.59,2.59,0,0,1,.86,1.1,4.9,4.9,0,0,1,.37,1.36,10.51,10.51,0,0,1,.09,1.29v6H410V10.25a9.49,9.49,0,0,0-.08-1.16,6.86,6.86,0,0,0-.32-1.53A5.1,5.1,0,0,0,408.8,6a3.74,3.74,0,0,0-1.44-1.17,4.89,4.89,0,0,0-2.26-.46,5.51,5.51,0,0,0-2.37.47A4.66,4.66,0,0,0,401,6.14V4.76h-2.48Z" transform="translate(-340.68 -0.33)"/></svg>